<svg width="36" height="36" viewBox="0 0 36 36" fill="none" xmlns="http://www.w3.org/2000/svg">
<path d="M12.738 28.7865C12.773 28.2815 12.8445 27.781 12.9525 27.285C13.047 26.8425 13.3335 25.59 13.7535 23.775L13.764 23.73L14.3445 21.228C14.463 20.718 14.5545 20.322 14.616 20.19C14.3265 19.5161 14.1813 18.7889 14.19 18.0555C14.19 16.05 15.324 14.496 16.794 14.496C17.334 14.487 17.85 14.721 18.207 15.135C18.564 15.549 18.729 16.0995 18.66 16.629C18.66 17.3085 18.5325 17.826 17.9805 19.6815C17.895 19.9661 17.8125 20.2516 17.733 20.538C17.6601 20.7973 17.5936 21.0584 17.5335 21.321C17.3895 21.9 17.5215 22.5165 17.889 22.9785C18.0672 23.2053 18.2973 23.386 18.5599 23.5053C18.8225 23.6246 19.11 23.679 19.398 23.664C21.636 23.664 23.298 20.6865 23.298 16.842C23.298 13.887 21.363 11.931 18.15 11.931C17.3457 11.9013 16.544 12.0387 15.7955 12.3346C15.047 12.6305 14.3681 13.0784 13.8015 13.65C13.2229 14.2343 12.7664 14.928 12.4587 15.6905C12.1509 16.4531 11.998 17.2693 12.009 18.0915C11.9713 18.9777 12.2428 19.8494 12.777 20.5575C13.0485 20.7675 13.152 21.132 13.0395 21.4425C12.978 21.6945 12.8295 22.2705 12.774 22.4625C12.7585 22.5567 12.7213 22.646 12.6653 22.7233C12.6093 22.8006 12.5361 22.8639 12.4515 22.908C12.3693 22.9506 12.2782 22.9731 12.1856 22.9736C12.093 22.9741 12.0017 22.9527 11.919 22.911C10.179 22.1925 9.225 20.244 9.225 17.751C9.225 13.2735 12.9615 9.375 18.513 9.375C23.2155 9.375 26.7345 12.8685 26.7345 17.085C26.7345 22.383 23.8365 26.241 19.6995 26.241C19.1109 26.259 18.5264 26.1382 17.9932 25.8883C17.46 25.6384 16.9932 25.2664 16.6305 24.8025L16.566 25.068L16.2555 26.346L16.2525 26.358C16.0335 27.258 15.8805 27.8835 15.8205 28.1175C15.6605 28.6515 15.4605 29.1715 15.2205 29.6775C18.2052 30.3888 21.349 29.9298 24.0057 28.3948C26.6625 26.8598 28.6303 24.3655 29.5048 21.4244C30.3792 18.4834 30.0939 15.3191 28.7074 12.5819C27.3209 9.84475 24.9386 7.74266 22.0502 6.70769C19.1617 5.67273 15.9865 5.78352 13.1772 7.01731C10.3679 8.25109 8.13788 10.5141 6.94555 13.3413C5.75322 16.1684 5.68914 19.3449 6.76648 22.2179C7.84382 25.0908 9.98073 27.4404 12.738 28.7865ZM18 33C9.7155 33 3 26.2845 3 18C3 9.7155 9.7155 3 18 3C26.2845 3 33 9.7155 33 18C33 26.2845 26.2845 33 18 33Z" fill="white"/>
</svg>
